<?xml version="1.0" encoding="UTF-8"?>
<svg version="1.1" xmlns="http://www.w3.org/2000/svg" width="1254" height="1254">
<path d="M0 0 C413.82 0 827.64 0 1254 0 C1254 413.82 1254 827.64 1254 1254 C840.18 1254 426.36 1254 0 1254 C0 840.18 0 426.36 0 0 Z " fill="#FDFDFE" transform="translate(0,0)"/>
<path d="M0 0 C2.10755393 -0.00543141 4.21510405 -0.01255975 6.32264709 -0.02124023 C12.00443195 -0.03935413 17.68592374 -0.03245592 23.36771321 -0.01972389 C29.3375518 -0.00953537 35.30736675 -0.0190056 41.27720642 -0.02526855 C51.29780543 -0.03252743 61.31828617 -0.02300295 71.33886719 -0.00390625 C82.89571547 0.01786494 94.45228145 0.01080206 106.00912291 -0.01121187 C115.96372634 -0.029409 125.91824519 -0.03190331 135.8728599 -0.0214572 C141.80432059 -0.01524672 147.73564891 -0.01431911 153.66710091 -0.02760315 C159.24464844 -0.03922415 164.82183466 -0.03102229 170.39934349 -0.00802612 C172.43657967 -0.00277254 174.47384666 -0.00419475 176.51107025 -0.01307678 C198.82906345 -0.10135175 213.37440346 4.84306582 229.43663406 20.77629185 C231.64741645 22.99523436 233.84919777 25.22286398 236.05053711 27.45117188 C237.60907629 29.01464493 239.16843771 30.57729872 240.72857666 32.13917542 C243.98213479 35.40033786 247.22915799 38.66781273 250.47094727 41.94067383 C254.61019082 46.11953858 258.76017189 50.28752189 262.9144249 54.45146084 C266.90081751 58.44786176 270.88228116 62.44915745 274.86303711 66.45117188 C275.61389336 67.20542387 276.3647496 67.95967587 277.13835907 68.73678398 C279.27940611 70.8895122 281.41698315 73.04562467 283.5534668 75.20288086 C284.48564781 76.13909523 284.48564781 76.13909523 285.43666077 77.09422302 C288.45876988 80.15291306 291.37152963 83.26323554 294.18244934 86.51779175 C297.60678314 90.47347882 301.23659921 94.16443047 304.96826172 97.82885742 C306.00390511 98.85267265 306.00390511 98.85267265 307.06047058 99.89717102 C308.54624624 101.36587189 310.03307172 102.83351137 311.52085686 104.30017662 C314.69905909 107.43592059 317.8676264 110.58132701 321.03685093 113.72614002 C326.92000848 119.56379856 332.8068355 125.39762203 338.71044922 131.21459961 C342.83386161 135.27824018 346.94462731 139.3543142 351.04760933 143.43857765 C352.6022078 144.98152367 354.16130423 146.51995282 355.72517204 148.05350304 C376.5717076 168.50601412 376.5717076 168.50601412 380.12866211 182.95507812 C380.55985352 184.62376953 380.55985352 184.62376953 380.99975586 186.32617188 C382.2246924 191.9802575 382.84286811 197.3562762 382.85229492 203.14013672 C382.85725983 203.87918747 382.86222473 204.61823822 382.86734009 205.37968445 C382.88186589 207.8084712 382.88874687 210.23719269 382.89428711 212.66601562 C382.89711449 213.50003529 382.89994186 214.33405495 382.90285492 215.19334793 C382.91780719 219.60513879 382.92706222 224.01689727 382.93139648 228.42871094 C382.93688172 232.97018521 382.96092216 237.51135978 382.98936844 242.0527401 C383.00804869 245.55989433 383.01320323 249.06697703 383.01473236 252.57417679 C383.01774619 254.24781562 383.02573154 255.92145358 383.03891754 257.59504318 C383.05609497 259.94233413 383.05406999 262.28890108 383.04760742 264.63623047 C383.0568222 265.31804886 383.06603699 265.99986725 383.07553101 266.7023468 C383.02219188 272.92985881 381.22555141 278.01709186 378.00366211 283.26757812 C373.77038401 287.38644331 369.62241221 289.30299478 363.75366211 289.95507812 C357.32667966 289.55102422 351.68012115 288.07310608 347.25366211 283.20507812 C343.03913881 278.0539941 342.43997334 272.45275599 342.40405273 265.97094727 C342.3972197 265.24004379 342.39038666 264.50914032 342.38334656 263.75608826 C342.3698183 262.17817796 342.36072679 260.60022456 342.3556366 259.02226448 C342.34730423 256.52034105 342.3267596 254.01877509 342.30310059 251.51695251 C342.25501021 246.20471451 342.22199284 240.89244069 342.19116211 235.58007812 C342.15541233 229.42457766 342.11338732 223.26925318 342.05522156 217.11392021 C342.03525408 214.65730772 342.0268544 212.20083232 342.0189209 209.74415588 C342.00593977 208.22730012 341.99241819 206.71044886 341.97827148 205.19360352 C341.96733459 203.21886803 341.96733459 203.21886803 341.95617676 201.20423889 C341.67589425 197.30518446 340.89404237 194.21695823 339.69116211 190.51757812 C338.43994568 190.52423996 337.18872925 190.53090179 335.89959717 190.5377655 C324.07158219 190.5987478 312.24359938 190.64363276 300.41546249 190.67301464 C294.33542038 190.68862826 288.25550583 190.70978769 282.17553711 190.74389648 C276.30109667 190.77664365 270.42677845 190.79446346 264.55225372 190.80220985 C262.31811857 190.80772587 260.08398963 190.8184969 257.84990692 190.8347683 C240.45576245 190.9563433 227.25579063 190.79473823 213.69116211 178.74023438 C202.25731896 167.08461409 202.99526082 152.37387136 203.09957695 137.15301323 C203.12516529 133.39097673 203.12014537 129.63002643 203.10768127 125.86793518 C203.08878786 118.57377016 203.1025551 111.2799265 203.12315369 103.9858017 C203.15014032 94.03696643 203.15631392 84.08849104 203.12816048 74.13963509 C203.12479547 70.43231281 203.14602532 66.72566003 203.16856384 63.01841736 C203.16605393 60.75568494 203.16249525 58.49295337 203.15771484 56.23022461 C203.17060043 55.1990451 203.18348602 54.1678656 203.19676208 53.10543823 C203.19007507 52.15951309 203.18338806 51.21358795 203.17649841 50.23899841 C203.17930533 49.41889503 203.18211226 48.59879164 203.18500423 47.75383663 C202.4646976 44.49208198 201.43786051 43.42295761 198.69116211 41.51757812 C195.72302034 41.12695519 193.12718175 40.98133826 190.15989685 41.01637268 C189.29036017 41.01083828 188.42082349 41.00530389 187.52493721 40.99960178 C184.60536575 40.98596707 181.68664501 41.00098017 178.76708984 41.01586914 C176.67599626 41.0120868 174.58490517 41.00658746 172.49382019 40.99949646 C166.80744336 40.98550755 161.12136798 40.99673854 155.43500781 41.01320767 C149.48239062 41.02704603 143.52979116 41.02059899 137.5771637 41.01707458 C127.57238913 41.01437003 117.56773434 41.02786412 107.56298828 41.05102539 C96.01032216 41.07758576 84.45785701 41.07939927 72.90517086 41.06763703 C61.78542358 41.05683721 50.66574871 41.06306691 39.54600716 41.07719231 C34.818607 41.08293812 30.09126008 41.08288034 25.36385918 41.07812691 C19.78651349 41.07333618 14.20938619 41.08354551 8.63208199 41.10508156 C6.59037131 41.11062299 4.54863954 41.11113917 2.50692749 41.10612869 C-12.9343358 41.07300257 -25.35872984 41.5509417 -37.30883789 52.51757812 C-43.96809302 60.18544306 -47.68252547 67.96876956 -47.68636131 78.18949699 C-47.69072164 78.92173247 -47.69508196 79.65396794 -47.69957441 80.40839237 C-47.71048494 82.85138166 -47.70012859 85.29380113 -47.68978882 87.73678589 C-47.69324706 89.51023049 -47.69801274 91.28367294 -47.70397055 93.05711091 C-47.71648759 97.92246536 -47.71030689 102.78764314 -47.7010119 107.65299821 C-47.69422456 112.90328048 -47.70470115 118.15353236 -47.71295166 123.40380859 C-47.72629508 133.68653703 -47.72340836 143.9691998 -47.71471374 154.25193082 C-47.70793927 162.60978396 -47.70701945 170.96761869 -47.71028519 179.32547379 C-47.71074489 180.51490797 -47.71120458 181.70434216 -47.71167821 182.9298198 C-47.71263739 185.34614022 -47.71361003 187.76246064 -47.71459599 190.17878105 C-47.72315186 212.84013529 -47.71331303 235.50145313 -47.69719489 258.1628014 C-47.68379499 277.60415798 -47.68611673 297.0454608 -47.69995117 316.48681641 C-47.71600944 339.06384832 -47.72232423 361.64084831 -47.71311438 384.21788514 C-47.71215874 386.6259404 -47.71121563 389.03399566 -47.71028519 391.44205093 C-47.70982236 392.62685133 -47.70935953 393.81165172 -47.70888268 395.03235515 C-47.70629328 403.37842884 -47.7106628 411.72448227 -47.71772385 420.07055283 C-47.72614192 430.24428773 -47.72385232 440.4179532 -47.70788161 450.59168015 C-47.70000257 455.78174638 -47.69690109 460.97169689 -47.70682907 466.16176224 C-47.71578415 470.91516691 -47.71082959 475.66834886 -47.69489641 480.42173339 C-47.69155203 482.13902064 -47.69323496 483.85632679 -47.70052378 485.57360183 C-47.75833005 500.3276299 -45.7871077 510.85852887 -35.93383789 522.26757812 C-28.16930379 528.92289307 -19.78324943 533.00023372 -9.43305969 532.89611816 C-8.68246204 532.90064829 -7.93186439 532.90517842 -7.15852135 532.90984583 C-4.6658839 532.92139024 -2.17379136 532.91185561 0.31884766 532.90234375 C2.11485132 532.9064524 3.91085232 532.91191501 5.70684814 532.91862488 C9.56295159 532.93032106 13.41891202 532.93284463 17.27503014 532.92826843 C23.37221428 532.92144652 29.46921084 532.9373464 35.56636047 532.95666504 C49.60465032 532.99769356 63.64293474 533.00907148 77.68127441 533.02019501 C90.55858218 533.03070109 103.43579958 533.04745176 116.31305152 533.08829069 C122.3748253 533.1066569 128.43638386 533.11053608 134.49817884 533.10335541 C138.2656672 533.10183508 142.03304751 533.11260723 145.80050659 533.12673378 C147.54803371 533.13074061 149.29558128 533.1296043 151.04310036 533.12296104 C153.42777665 533.11459123 155.81170377 533.12455567 158.19633484 533.13903809 C158.88835721 533.13214415 159.58037959 533.12525022 160.29337233 533.11814737 C164.6002993 533.16913767 167.25207928 533.91729793 170.69116211 536.51757812 C173.00756836 539.22460937 173.00756836 539.22460937 175.25366211 542.33007812 C175.99745117 543.34714844 176.74124023 544.36421875 177.50756836 545.41210938 C178.58844727 546.94931641 178.58844727 546.94931641 179.69116211 548.51757812 C180.80491211 550.06832031 180.80491211 550.06832031 181.94116211 551.65039062 C184.47120145 555.79558901 184.22260092 557.73462879 183.69116211 562.51757812 C181.77663641 567.47282112 178.30076934 569.3632923 173.69116211 571.51757812 C172.9857749 571.86051218 172.28038769 572.20344624 171.55362511 572.55677223 C167.99210882 573.75222029 164.68943013 573.80109361 160.97769165 573.78500366 C160.20812806 573.78953478 159.43856448 573.79406589 158.64568079 573.79873431 C156.07044791 573.8113804 153.49542648 573.80975776 150.92016602 573.80810547 C149.07186613 573.81409096 147.22356875 573.82089655 145.37527466 573.82846069 C140.3540492 573.84613491 135.33289191 573.85081693 130.31163836 573.85209227 C127.16984252 573.85351467 124.02806397 573.85778616 120.88627243 573.8630867 C109.911231 573.88159813 98.93623816 573.88975672 87.96118164 573.88818359 C77.75649821 573.88698485 67.55202719 573.90803177 57.34739745 573.93967092 C48.5700547 573.96590754 39.79278095 573.97654766 31.01539934 573.97527277 C25.78069432 573.97476491 20.54617771 573.98034913 15.31151199 574.00162888 C10.37841892 574.02113358 5.4456914 574.02105284 0.51258469 574.00659561 C-1.28718862 574.00452085 -3.08698552 574.0091278 -4.88671875 574.02131653 C-19.00442887 574.11064884 -31.92340633 572.49967115 -44.62133789 565.76757812 C-45.28520508 565.4246875 -45.94907227 565.08179688 -46.63305664 564.72851562 C-52.42766491 561.63956102 -57.46126633 557.95314994 -62.30883789 553.51757812 C-62.99075195 552.9271875 -63.67266602 552.33679688 -64.37524414 551.72851562 C-78.22234453 538.99243503 -87.45817959 518.897409 -88.67867374 500.21112549 C-88.86687441 495.53881446 -88.84330524 490.86873008 -88.81677246 486.19361877 C-88.8213922 484.39763239 -88.82775225 482.60164979 -88.83568144 480.80567497 C-88.8522508 475.91485547 -88.8441853 471.02435151 -88.83173656 466.13353145 C-88.82263715 460.84166534 -88.83667997 455.54985119 -88.84765625 450.25799561 C-88.86539445 439.90849236 -88.86162236 429.55910549 -88.85000569 419.20959777 C-88.84095261 410.79383023 -88.83975546 402.37809517 -88.84410095 393.96232414 C-88.84471388 392.76211813 -88.84532682 391.56191212 -88.84595832 390.32533623 C-88.84723729 387.8867232 -88.84853415 385.44811017 -88.84984869 383.00949716 C-88.86124085 360.17000354 -88.84816244 337.33057425 -88.82664722 314.49109118 C-88.80877979 294.91842636 -88.81188011 275.34585646 -88.83032227 255.77319336 C-88.85175702 233.01401058 -88.86013994 210.25488413 -88.84787321 187.49569267 C-88.84659909 185.06601108 -88.84534161 182.63632948 -88.84410095 180.20664787 C-88.84348385 179.01137182 -88.84286675 177.81609576 -88.84223095 176.58459922 C-88.83878569 168.18510944 -88.84458863 159.78565556 -88.85401917 151.38617134 C-88.86526959 141.14107915 -88.86213534 130.89610946 -88.84089619 120.6510312 C-88.83042635 115.4296334 -88.82619418 110.2084394 -88.8394928 104.98704338 C-88.85150737 100.19713905 -88.84470643 95.40762533 -88.82358259 90.61775588 C-88.81915459 88.89520132 -88.82129592 87.17261301 -88.83108574 85.45008058 C-88.962481 60.38676421 -81.46304841 40.42656918 -64.12133789 21.83007812 C-46.05704707 4.43014826 -24.18498127 -0.10555843 0 0 Z " fill="#162936" transform="translate(471.308837890625,223.482421875)"/>
<path d="M0 0 C0.76554199 0.21398437 1.53108398 0.42796875 2.31982422 0.6484375 C32.80754742 9.38811661 59.76463563 32.10757594 76 59 C76.40976074 59.67788574 76.81952148 60.35577148 77.24169922 61.05419922 C93.94690523 89.28299643 99.75142033 125.03215633 92 157 C82.3438363 193.06444823 61.8660004 223.76755044 29.52734375 243.10546875 C-0.89928081 260.58165937 -37.963101 266.55578105 -72.06787109 257.44775391 C-108.02563575 247.44044298 -136.07591335 225.03411518 -155.25 193.1875 C-162.36990368 180.24619966 -166.97635267 166.41930309 -170 152 C-170.22558594 150.97261719 -170.45117188 149.94523438 -170.68359375 148.88671875 C-176.80107752 116.3585809 -168.16256132 80.90806445 -149.875 53.625 C-138.12957091 36.90124232 -124.16948542 24.01100808 -107 13 C-105.47826172 12.02353516 -105.47826172 12.02353516 -103.92578125 11.02734375 C-73.01023443 -7.0927164 -33.92774425 -9.87761367 0 0 Z " fill="#10B77A" transform="translate(817,542)"/>
<path d="M0 0 C6.35649606 5.24559789 12.14951814 11.00792559 17.96484375 16.83544922 C19.0577466 17.9269949 20.15086161 19.0183282 21.24417114 20.10946655 C24.19688044 23.05763859 27.14644365 26.00893913 30.09529495 28.96096945 C33.1921544 32.06037235 36.29146633 35.15732131 39.39038086 38.25466919 C44.59375919 43.45623134 49.79503284 48.65989104 54.99511719 53.86474609 C60.9922804 59.867348 66.99303351 65.86634301 72.99566936 71.86347187 C78.16375585 77.0270081 83.32987566 82.19250592 88.4943819 87.35962307 C91.57252465 90.43931845 94.65132377 93.51834947 97.73190308 96.59560776 C100.62998774 99.49078596 103.52558128 102.38843357 106.41933823 105.28793716 C107.4765995 106.34651135 108.53469526 107.40425291 109.5937233 108.46105957 C114.75651138 113.61402285 119.84035777 118.78294664 124.53684998 124.37147713 C126.00791536 126.00881 127.53891666 127.36878021 129.25 128.75 C131.65575243 130.7183429 133.37013369 132.37410429 135 135 C135 135.66 135 136.32 135 137 C122.03851882 137.06970861 109.07708273 137.12291697 96.11545181 137.15543652 C90.09594317 137.17104932 84.0765634 137.19220724 78.05712891 137.22631836 C72.24104303 137.25906846 66.42508062 137.27688595 60.60890961 137.28463173 C58.39710295 137.29014723 56.18530256 137.30091721 53.97354889 137.31719017 C36.64613446 137.43953174 23.51136684 137.22982795 10 125.22265625 C-0.26059975 114.76303625 -0.62461244 102.15310186 -0.56648254 88.36576843 C-0.5409589 86.09149571 -0.51487909 83.81722917 -0.48828125 81.54296875 C-0.47894059 79.18501032 -0.47183041 76.82704209 -0.46684265 74.46907043 C-0.44787174 68.302364 -0.39885672 62.13625868 -0.34332275 55.9697876 C-0.2919157 49.66158171 -0.26928297 43.35327745 -0.24414062 37.04492188 C-0.19072807 24.69635238 -0.10553631 12.34822643 0 0 Z " fill="#12B77B" transform="translate(675,277)"/>
<path d="M0 0 C3.98908073 2.64079004 6.4196692 6.1168394 8.25 10.5 C9.37063896 16.81632871 7.73671785 20.53692934 4.2890625 25.85546875 C1.16819296 29.90303326 -2.42335625 33.40121904 -6.1015625 36.9296875 C-8.20923243 38.97518427 -10.16003726 41.01919343 -12.0625 43.25 C-15.50351995 47.28257544 -19.12273684 51.13581782 -22.75 55 C-28.08337338 60.67443915 -28.08337338 60.67443915 -33.25 66.5 C-36.63665431 70.43957747 -40.19683192 74.21133392 -43.75 78 C-47.90711759 82.43350302 -52.02178769 86.88235296 -55.98828125 91.48828125 C-58.3247114 94.1562669 -60.72416251 96.76514554 -63.125 99.375 C-68.03798719 104.7162946 -72.90463768 110.09720662 -77.75 115.5 C-79.39528067 117.33382932 -81.04110496 119.16717108 -82.6875 121 C-83.41839844 121.8146875 -84.14929688 122.629375 -84.90234375 123.46875 C-88.44680327 127.3654074 -89.91164383 127.92638475 -95.25 128.1875 C-96.4153125 128.27386719 -97.580625 128.36023438 -98.78125 128.44921875 C-104.16057614 127.76307329 -107.39287601 123.85726358 -111.07507324 120.1736145 C-113.01699025 118.23321893 -114.98316006 116.31897766 -116.95019531 114.40405273 C-121.02252462 110.42648667 -125.06285838 106.41795664 -129.09277344 102.39746094 C-131.63290842 99.86712208 -134.18352323 97.34765396 -136.734375 94.828125 C-138.36263558 93.20638795 -139.99026232 91.58401422 -141.6171875 89.9609375 C-142.37450165 89.21597015 -143.1318158 88.47100281 -143.91207886 87.70346069 C-148.53255688 83.06340242 -153.00405658 78.49990133 -154.24609375 71.83984375 C-154.12046824 66.68919802 -153.7679551 62.87083152 -150.75 58.5 C-146.58838627 54.74439736 -144.06167876 53.33186051 -138.5 53.1875 C-137.56671875 53.15011719 -136.6334375 53.11273437 -135.671875 53.07421875 C-129.00780021 54.04532056 -124.34455425 59.63273189 -119.8203125 64.234375 C-119.18511688 64.87240051 -118.54992126 65.51042603 -117.89547729 66.16778564 C-115.88387395 68.19051172 -113.87936863 70.22010721 -111.875 72.25 C-110.50567266 73.62936735 -109.13588559 75.00827848 -107.765625 76.38671875 C-104.42174149 79.75255766 -101.08420247 83.1245719 -97.75 86.5 C-96.64548176 85.56754774 -95.54302296 84.63265574 -94.44140625 83.69677734 C-93.82724854 83.17642914 -93.21309082 82.65608093 -92.58032227 82.1199646 C-89.77072856 79.63327554 -87.26230355 76.90683546 -84.75 74.125 C-84.22728516 73.55265625 -83.70457031 72.9803125 -83.16601562 72.390625 C-79.94633196 68.85497238 -76.78342949 65.27396745 -73.65625 61.65625 C-71.06714998 58.72759587 -68.40803766 55.86603327 -65.75 53 C-61.96115843 48.91431269 -58.22828053 44.79606631 -54.58203125 40.58203125 C-52.21750023 37.89483502 -49.79783285 35.25948451 -47.375 32.625 C-41.20376061 25.91392214 -35.07481401 19.16680109 -29.0625 12.3125 C-28.50175781 11.67570313 -27.94101562 11.03890625 -27.36328125 10.3828125 C-26.29042253 9.13071104 -25.24548664 7.85411914 -24.23046875 6.5546875 C-18.24269668 -0.99717278 -9.08358147 -4.44305615 0 0 Z " fill="#FAFDFC" transform="translate(850.75,604.5)"/>
<path d="M0 0 C1.29529633 -0.01051392 2.59059265 -0.02102783 3.92514038 -0.03186035 C7.45849591 -0.05907749 10.99079348 -0.04866655 14.52416611 -0.02958584 C18.23334209 -0.01432411 21.94243153 -0.02850272 25.65161133 -0.03790283 C31.8789078 -0.04879832 38.1057764 -0.03448736 44.33300781 -0.00585938 C51.5178993 0.02679114 58.70176904 0.01621264 65.88663578 -0.01681781 C72.07124822 -0.04410461 78.25555426 -0.04785945 84.44020748 -0.03218579 C88.12710743 -0.02286354 91.81352816 -0.02149511 95.50039673 -0.04140472 C99.6128524 -0.062064 103.72356545 -0.03338011 107.8359375 0 C109.0476059 -0.01214539 110.25927429 -0.02429077 111.50765991 -0.0368042 C119.08171067 0.07690707 123.52608095 1.35872572 128.91796875 6.77636719 C132.56317105 10.6038296 133.21323439 13.57631429 133.41796875 18.71386719 C133.21780356 24.28398119 132.31408739 27.37059165 128.91796875 31.77636719 C124.33780899 36.01301497 120.73809878 38.01842774 114.48628235 38.05725098 C113.3831218 38.06867126 112.27996124 38.08009155 111.14337158 38.09185791 C109.9375946 38.09409363 108.73181763 38.09632935 107.48950195 38.09863281 C105.57910378 38.11352753 105.57910378 38.11352753 103.63011169 38.12872314 C100.13812212 38.15492722 96.64620939 38.16785297 93.1541369 38.17674446 C90.96970803 38.18261461 88.78529995 38.19082597 86.60088158 38.19975281 C79.75848819 38.2270946 72.91614257 38.24643038 66.07369834 38.25415659 C58.18990564 38.26310876 50.30680807 38.29816399 42.42322665 38.35615778 C36.32028149 38.399485 30.21753118 38.41957016 24.11443394 38.42223883 C20.47373049 38.42432884 16.83368078 38.43600985 13.19314003 38.47187805 C9.12613874 38.51116846 5.06057879 38.50222579 0.9934082 38.48925781 C-0.20224762 38.50768738 -1.39790344 38.52611694 -2.62979126 38.54510498 C-11.9031811 38.4526557 -17.15559388 35.70280455 -23.64453125 29.21386719 C-25.91357208 23.78789998 -25.79181028 18.56550238 -25.08203125 12.77636719 C-20.26895767 1.74640691 -10.97059754 -0.10996584 0 0 Z " fill="#B9C3CF" transform="translate(507.08203125,529.2236328125)"/>
<path d="M0 0 C1.66540581 -0.01073296 1.66540581 -0.01073296 3.36445618 -0.02168274 C4.58834549 -0.02437164 5.8122348 -0.02706055 7.07321167 -0.02983093 C9.00021156 -0.03968773 9.00021156 -0.03968773 10.96614075 -0.04974365 C15.23472848 -0.07079767 19.5033166 -0.08115024 23.77194214 -0.09111023 C25.2421559 -0.09515789 26.71236948 -0.09927482 28.18258286 -0.10346031 C35.0927884 -0.12251835 42.00298325 -0.13674564 48.91321003 -0.14507228 C56.88288697 -0.15483437 64.8522854 -0.18112414 72.82186425 -0.22157317 C78.98503829 -0.25177689 85.14813272 -0.26654535 91.31137931 -0.26985329 C94.99049916 -0.27219982 98.6693217 -0.28110723 102.34836197 -0.30631447 C106.45864486 -0.33401985 110.56830996 -0.32975111 114.67868042 -0.32279968 C115.89042435 -0.33560974 117.10216827 -0.3484198 118.35063171 -0.36161804 C125.76391098 -0.31595007 131.90298203 0.34124996 137.37121773 5.7312727 C141.25310638 10.22732062 142.08269152 15.32873194 141.76412964 21.14717102 C139.92547227 27.37817655 136.72584867 31.07636431 131.45111847 34.76440716 C128.40941414 36.32971282 126.5481067 36.52198111 123.14730835 36.52139282 C122.02857834 36.52840714 120.90984833 36.53542145 119.75721741 36.54264832 C118.53940079 36.53500458 117.32158417 36.52736084 116.06686401 36.51948547 C114.77694046 36.52313614 113.48701691 36.5267868 112.15800476 36.5305481 C108.62698606 36.53993898 105.09624544 36.53054701 101.56524849 36.51721597 C97.86669 36.50588305 94.16814484 36.5100104 90.46957397 36.51196289 C84.25895659 36.51284529 78.04844847 36.50177694 71.83786011 36.48335266 C64.66179587 36.46218584 57.48589167 36.45867549 50.30980253 36.46491462 C43.40119029 36.47061325 36.49263429 36.46495674 29.58403015 36.45374107 C26.64634662 36.44910169 23.70869755 36.44821837 20.77101135 36.45032692 C16.66772101 36.45256372 12.56465397 36.43808714 8.46139526 36.42182922 C7.24357864 36.42430664 6.02576202 36.42678406 4.77104187 36.42933655 C3.65231186 36.42225174 2.53358185 36.41516693 1.38095093 36.40786743 C0.41126625 36.40581456 -0.55841843 36.40376169 -1.55748749 36.40164661 C-6.76017307 35.90733472 -9.69015289 34.11369824 -12.98587036 30.14717102 C-13.57883911 29.44592102 -14.17180786 28.74467102 -14.78274536 28.02217102 C-18.41646587 23.3334994 -17.76597171 17.843894 -17.23587036 12.14717102 C-13.85831942 5.00235171 -7.9568939 0.03510765 0 0 Z " fill="#B9C2CF" transform="translate(499.2358703613281,451.8528289794922)"/>
<path d="M0 0 C1.44770279 -0.00810448 1.44770279 -0.00810448 2.9246521 -0.01637268 C6.09982417 -0.02883126 9.27408443 -0.01238755 12.44921875 0.00561523 C14.66446988 0.00546018 16.87972129 0.00397014 19.0949707 0.00120544 C23.73173046 -0.00017727 28.36818042 0.01235853 33.00488281 0.03515625 C38.93986118 0.06354013 44.87432499 0.06080167 50.80934143 0.04806614 C55.38192111 0.04110175 59.95438246 0.048907 64.52694702 0.06132317 C66.71495103 0.06583025 68.90296777 0.06618098 71.0909729 0.06225777 C74.15205806 0.05933816 77.21244119 0.07588895 80.2734375 0.09765625 C81.17234711 0.0931546 82.07125671 0.08865295 82.99740601 0.08401489 C89.38226653 0.15921771 94.41577933 1.03921004 99.31640625 5.47436523 C99.87585938 6.16401367 100.4353125 6.85366211 101.01171875 7.56420898 C101.58664062 8.25643555 102.1615625 8.94866211 102.75390625 9.66186523 C106.14304911 14.17114853 105.88298416 19.06258222 105.13671875 24.50170898 C102.48110037 30.78034958 98.4949902 34.91438545 92.13671875 37.50170898 C88.78653957 38.06221631 85.49683733 38.05931466 82.10571289 38.03515625 C81.12267685 38.04377182 80.13964081 38.05238739 79.1268158 38.06126404 C75.8915643 38.08388464 72.65718178 38.0771919 69.421875 38.06811523 C67.16417688 38.07335263 64.90648095 38.07962954 62.64878845 38.0868988 C57.92208545 38.09729593 53.19568362 38.09275133 48.46899414 38.078125 C42.42182067 38.0609412 36.37559774 38.08443205 30.32853031 38.1196146 C25.66753381 38.14161059 21.00676395 38.14014165 16.34573174 38.13184929 C14.11667272 38.13103093 11.88759688 38.13787207 9.6585865 38.15262032 C6.53750894 38.1701056 3.41812946 38.15548923 0.29711914 38.1328125 C-0.61689667 38.1445047 -1.53091248 38.1561969 -2.47262573 38.16824341 C-8.75523861 38.07570746 -13.02581375 36.57499206 -17.86328125 32.50170898 C-22.58060881 27.3004895 -23.72798128 22.40010975 -23.41015625 15.40795898 C-22.25296728 9.25832615 -18.86779773 5.88505026 -13.85498047 2.42564392 C-9.31229379 -0.11375162 -5.10674348 -0.05492414 0 0 Z " fill="#B9C3CF" transform="translate(504.86328125,608.498291015625)"/>
<path d="M0 0 C7.52144257 4.32000804 11.96808664 11.018211 14.28515625 19.3125 C15.50029289 29.38534324 14.65537286 38.2646173 8.63671875 46.59375 C5.62200481 50.22720435 2.666268 53.36533922 -1.71484375 55.3125 C-2.70484375 55.3125 -3.69484375 55.3125 -4.71484375 55.3125 C-4.71484375 55.9725 -4.71484375 56.6325 -4.71484375 57.3125 C-20.18815601 58.21913939 -20.18815601 58.21913939 -26.39453125 53.50390625 C-27.18435917 52.79119171 -27.96258377 52.06475998 -28.71484375 51.3125 C-29.04484375 60.5525 -29.37484375 69.7925 -29.71484375 79.3125 C-34.66484375 79.3125 -39.61484375 79.3125 -44.71484375 79.3125 C-44.71484375 52.5825 -44.71484375 25.8525 -44.71484375 -1.6875 C-39.76484375 -1.6875 -34.81484375 -1.6875 -29.71484375 -1.6875 C-29.38484375 -0.0375 -29.05484375 1.6125 -28.71484375 3.3125 C-28.24433594 2.96316406 -27.77382813 2.61382813 -27.2890625 2.25390625 C-26.66644531 1.79886719 -26.04382813 1.34382812 -25.40234375 0.875 C-24.78746094 0.42253906 -24.17257812 -0.02992188 -23.5390625 -0.49609375 C-16.62915199 -5.00899034 -7.07136815 -3.22750242 0 0 Z " fill="#1A2D3B" transform="translate(795.71484375,886.6875)"/>
<path d="M0 0 C3.23909079 1.63695986 5.82276959 3.32861251 8.0625 6.25 C8.0625 6.91 8.0625 7.57 8.0625 8.25 C8.7225 8.25 9.3825 8.25 10.0625 8.25 C10.30484375 7.65703125 10.5471875 7.0640625 10.796875 6.453125 C13.29644258 2.10202587 17.50643387 0.05611317 22.0625 -1.75 C29.05275464 -2.79775629 36.19026966 -2.83335613 42.3828125 0.9140625 C46.97768972 4.56859276 50.30568752 8.61462971 52.0625 14.25 C52.33475479 17.54993724 52.29515442 20.83536322 52.2578125 24.14453125 C52.2549826 25.09188644 52.25215271 26.03924164 52.24923706 27.01530457 C52.23807187 30.03116666 52.21297389 33.04672816 52.1875 36.0625 C52.17746547 38.11132383 52.16834045 40.16015232 52.16015625 42.20898438 C52.13814449 47.22277148 52.10363971 52.23633483 52.0625 57.25 C47.1125 57.25 42.1625 57.25 37.0625 57.25 C37.032771 55.55472168 37.032771 55.55472168 37.00244141 53.82519531 C36.9263112 49.62803036 36.83760521 45.43120874 36.74511719 41.234375 C36.70685809 39.41868879 36.67199983 37.60292759 36.640625 35.78710938 C36.5949077 33.17550877 36.53692464 30.56442312 36.4765625 27.953125 C36.46501129 27.14256653 36.45346008 26.33200806 36.44155884 25.49688721 C36.33777361 20.05592441 36.33777361 20.05592441 34.0625 15.25 C29.83395878 12.40369161 24.96641428 12.44061609 20.0625 13.25 C16.97451326 15.50057567 16.97451326 15.50057567 15.0625 18.25 C14.5675 18.745 14.5675 18.745 14.0625 19.25 C13.90232834 22.05976518 13.80299466 24.84773596 13.74609375 27.66015625 C13.72531265 28.50219101 13.70453156 29.34422577 13.68312073 30.21177673 C13.61753188 32.91193179 13.55869724 35.61218717 13.5 38.3125 C13.45682363 40.13868241 13.41320964 41.96485454 13.36914062 43.79101562 C13.26184106 48.27723992 13.16060034 52.7635655 13.0625 57.25 C7.7825 57.25 2.5025 57.25 -2.9375 57.25 C-2.94160889 56.0947583 -2.94571777 54.9395166 -2.94995117 53.74926758 C-2.97176324 49.45308131 -3.02607402 45.15780821 -3.09008789 40.86206055 C-3.11324988 39.00472787 -3.1276594 37.14726418 -3.13305664 35.28979492 C-3.14235962 32.615545 -3.18337697 29.94335032 -3.23046875 27.26953125 C-3.2265361 26.44226028 -3.22260345 25.61498932 -3.21855164 24.76264954 C-3.32725184 20.44392735 -3.55488852 18.73657772 -6.31396484 15.2277832 C-9.28617393 12.98714801 -10.69298536 12.57277284 -14.375 12.625 C-15.28121094 12.61210938 -16.18742187 12.59921875 -17.12109375 12.5859375 C-20.92675487 13.48325011 -23.54761084 15.1994265 -25.9375 18.25 C-26.80403911 21.25798366 -26.77642986 24.15451901 -26.7421875 27.26953125 C-26.75589386 28.12810226 -26.76960022 28.98667328 -26.78372192 29.8712616 C-26.82098762 32.6022091 -26.81730966 35.33133456 -26.8125 38.0625 C-26.83062929 39.91864817 -26.85143272 41.77477228 -26.875 43.63085938 C-26.92681848 48.17087776 -26.94193296 52.70970213 -26.9375 57.25 C-32.2175 57.25 -37.4975 57.25 -42.9375 57.25 C-42.9375 38.11 -42.9375 18.97 -42.9375 -0.75 C-37.9875 -0.75 -33.0375 -0.75 -27.9375 -0.75 C-27.6075 1.23 -27.2775 3.21 -26.9375 5.25 C-26.39480469 4.82847656 -25.85210937 4.40695312 -25.29296875 3.97265625 C-24.57753906 3.42480469 -23.86210937 2.87695312 -23.125 2.3125 C-22.41730469 1.76722656 -21.70960938 1.22195313 -20.98046875 0.66015625 C-14.97167321 -3.48740625 -6.46895699 -2.73562858 0 0 Z " fill="#15BA7D" transform="translate(352.9375,885.75)"/>
<path d="M0 0 C1.03374756 0.00161133 2.06749512 0.00322266 3.13256836 0.00488281 C13.1677369 0.16662528 20.84130531 2.29544726 28.875 8.375 C28.26301624 11.81450364 26.95441153 13.89064485 24.8125 16.625 C24.26464844 17.33140625 23.71679688 18.0378125 23.15234375 18.765625 C22.73082031 19.29671875 22.30929687 19.8278125 21.875 20.375 C17.68903179 19.85175397 14.50093069 18.28441217 10.83984375 16.3125 C5.80110481 13.90833032 0.36081939 13.71842949 -5.125 14.375 C-7.88146462 15.59027498 -9.98408136 17.23408136 -12.125 19.375 C-12.54192853 22.79100593 -12.54192853 22.79100593 -12.125 26.375 C-8.95367513 29.59413379 -4.9154206 30.5411621 -0.6875 31.75 C24.70467087 39.39495467 24.70467087 39.39495467 29.875 48.375 C31.66577842 55.04971958 32.18982684 63.28114408 29.3125 69.6875 C25.5306849 76.20879247 19.0938228 80.96073886 11.828125 82.9296875 C-1.46674233 84.93446908 -15.02704202 84.55074366 -26.625 77.3125 C-28.62940376 75.75908709 -30.43154509 74.25661657 -32.125 72.375 C-30.61587042 67.39487239 -27.56838151 64.13240058 -24.125 60.375 C-20.0003089 61.83077333 -16.75172799 63.95718134 -13.125 66.375 C-9.07192467 68.3629035 -5.6832935 68.67285572 -1.1875 68.6875 C0.58947266 68.71263672 0.58947266 68.71263672 2.40234375 68.73828125 C6.23701564 68.33712885 8.61275545 67.40262507 11.875 65.375 C14.20249345 61.88375983 14.37799316 60.48277749 13.875 56.375 C11.08709827 52.93518677 8.67814758 51.69121768 4.4453125 50.55859375 C3.40246094 50.26919922 2.35960937 49.97980469 1.28515625 49.68164062 C0.20105469 49.39482422 -0.88304687 49.10800781 -2 48.8125 C-22.91583776 43.16397136 -22.91583776 43.16397136 -29.0625 33.25 C-31.13076798 27.37039544 -31.1842886 20.73197258 -29.31640625 14.8125 C-23.55551669 3.01164664 -12.1144852 -0.01930441 0 0 Z " fill="#13B87B" transform="translate(267.125,860.625)"/>
<path d="M0 0 C5.20340288 4.04709113 8.39166874 9.84269735 9.34899902 16.38504028 C9.45834686 18.88235555 9.45129257 21.34875912 9.390625 23.84765625 C9.38496521 24.74495956 9.37930542 25.64226288 9.37347412 26.5667572 C9.35129623 29.39924195 9.30113739 32.23040539 9.25 35.0625 C9.22991087 36.99672637 9.21166436 38.9309728 9.1953125 40.86523438 C9.15149279 45.57732276 9.08259767 50.28843831 9 55 C4.05 55 -0.9 55 -6 55 C-6 53.35 -6 51.7 -6 50 C-6.886875 50.61875 -7.77375 51.2375 -8.6875 51.875 C-16.23029576 56.71377464 -23.52223675 56.92910743 -32.25 55.5 C-37.20189576 54.10121707 -40.18830182 50.11567415 -43 46 C-44.65925964 41.02222107 -44.79307944 36.17795667 -44 31 C-41.31141937 25.97387004 -37.50569707 22.69508853 -32.20092773 20.56030273 C-27.42071127 19.34337575 -22.45853494 19.69917931 -17.5625 19.8125 C-16.44939453 19.82603516 -15.33628906 19.83957031 -14.18945312 19.85351562 C-11.45912788 19.88867003 -8.72982256 19.93787894 -6 20 C-7.19214442 15.62880379 -8.22437937 12.65043567 -12 10 C-14.75266097 9.59484644 -17.01017359 9.42909876 -19.75 9.5 C-20.46285156 9.50773438 -21.17570312 9.51546875 -21.91015625 9.5234375 C-27.61292261 9.71109709 -31.3031593 10.86877287 -36 14 C-36.86646667 12.56988027 -37.71781829 11.13059381 -38.5625 9.6875 C-39.03816406 8.88699219 -39.51382812 8.08648438 -40.00390625 7.26171875 C-41 5 -41 5 -40 2 C-37.85546875 0.6484375 -37.85546875 0.6484375 -35.1875 -0.625 C-34.31480469 -1.05039062 -33.44210937 -1.47578125 -32.54296875 -1.9140625 C-23.00370771 -5.98766399 -8.70829314 -6.00299573 0 0 Z " fill="#16BA7E" transform="translate(461,888)"/>
<path d="M0 0 C7.80865496 4.9205223 11.7506675 10.27610749 13.99609375 19.2578125 C13.99609375 23.5478125 13.99609375 27.8378125 13.99609375 32.2578125 C0.79609375 32.2578125 -12.40390625 32.2578125 -26.00390625 32.2578125 C-23.39909583 39.37249664 -23.39909583 39.37249664 -18.00390625 43.2578125 C-12.07555176 44.08641536 -6.81801142 44.06404499 -1.50390625 41.1328125 C0.22859375 40.2046875 0.22859375 40.2046875 1.99609375 39.2578125 C5.8642299 40.61608932 8.21436377 43.32154196 10.99609375 46.2578125 C9.52057032 50.3892781 6.78322448 52.3445635 2.99609375 54.2578125 C-5.1255207 57.70913148 -14.20759349 58.95010692 -22.7734375 56.44921875 C-30.46570277 53.03437288 -36.81096081 47.00379429 -40.00390625 39.1328125 C-42.30715639 30.55207667 -42.61971674 20.20074062 -38.3203125 12.24609375 C-29.54359765 -1.01013135 -15.25241648 -8.00402039 0 0 Z " fill="#1A2D3A" transform="translate(858.00390625,886.7421875)"/>
<path d="M0 0 C4.42431516 2.30103891 8.37204986 6.03917241 10.875 10.34765625 C12.67764444 16.33033977 13.14737548 21.65522474 13.0703125 27.87890625 C13.0674826 28.75542847 13.06465271 29.63195068 13.06173706 30.53503418 C13.05063492 33.30605324 13.02554954 36.0767366 13 38.84765625 C12.98995729 40.73827655 12.98083371 42.62890196 12.97265625 44.51953125 C12.95072835 49.12903354 12.91626845 53.73828819 12.875 58.34765625 C8.255 58.34765625 3.635 58.34765625 -1.125 58.34765625 C-1.1343457 57.2582373 -1.14369141 56.16881836 -1.15332031 55.04638672 C-1.19332981 50.98689571 -1.25911829 46.92815384 -1.33251953 42.86914062 C-1.36066584 41.11565813 -1.38191185 39.36205026 -1.39599609 37.60839844 C-1.41751427 35.08073026 -1.46420702 32.55455941 -1.515625 30.02734375 C-1.51685364 29.24898163 -1.51808228 28.47061951 -1.51934814 27.66867065 C-1.65753597 22.4805576 -2.70905235 19.47252893 -6.125 15.34765625 C-8.63150152 14.09440549 -10.57604917 14.00060438 -13.375 13.84765625 C-14.30828125 13.77546875 -15.2415625 13.70328125 -16.203125 13.62890625 C-20.63119365 14.71816378 -22.76435216 17.53702898 -25.125 21.34765625 C-25.93193295 24.29524183 -25.96548764 27.08113594 -25.9296875 30.125 C-25.94339386 30.93634903 -25.95710022 31.74769806 -25.97122192 32.58363342 C-26.00833495 35.15138145 -26.00482023 37.71717948 -26 40.28515625 C-26.01814009 42.03583727 -26.0389469 43.78649281 -26.0625 45.53710938 C-26.11417486 49.80761568 -26.12944313 54.0768546 -26.125 58.34765625 C-30.745 58.34765625 -35.365 58.34765625 -40.125 58.34765625 C-40.125 39.53765625 -40.125 20.72765625 -40.125 1.34765625 C-35.505 1.34765625 -30.885 1.34765625 -26.125 1.34765625 C-25.795 2.99765625 -25.465 4.64765625 -25.125 6.34765625 C-24.238125 5.56390625 -23.35125 4.78015625 -22.4375 3.97265625 C-16.30990685 -1.44242607 -7.73300783 -2.37391968 0 0 Z " fill="#162A38" transform="translate(676.125,884.65234375)"/>
<path d="M0 0 C5.28 0 10.56 0 16 0 C16 5.28 16 10.56 16 16 C20.95 16 25.9 16 31 16 C31 20.29 31 24.58 31 29 C25.72 29 20.44 29 15 29 C15.113912 33.22973247 15.24067206 37.45840857 15.375 41.6875 C15.4059375 42.88568359 15.436875 44.08386719 15.46875 45.31835938 C15.50742187 46.47529297 15.54609375 47.63222656 15.5859375 48.82421875 C15.63306885 50.41882935 15.63306885 50.41882935 15.68115234 52.0456543 C15.91237503 55.43251724 15.91237503 55.43251724 18 60 C21.96 60.33 25.92 60.66 30 61 C30.92556607 63.77669822 31.19295491 65.67696895 31.25 68.5625 C31.27578125 69.34753906 31.3015625 70.13257813 31.328125 70.94140625 C31.21984375 71.62074219 31.1115625 72.30007813 31 73 C25.71560193 76.52293205 19.13399838 75.60701026 13 75 C7.83740124 73.3482757 5.05280566 70.6276256 2.5625 65.875 C0.50482568 61.1321991 -0.11957162 57.33847321 -0.09765625 52.14453125 C-0.0962413 51.48289474 -0.09482635 50.82125824 -0.09336853 50.13957214 C-0.08777996 48.03050172 -0.07522965 45.92153823 -0.0625 43.8125 C-0.05748352 42.38086091 -0.05292087 40.94922015 -0.04882812 39.51757812 C-0.0378143 36.01168412 -0.02055755 32.5058525 0 29 C-2.97 29 -5.94 29 -9 29 C-9 24.71 -9 20.42 -9 16 C-6.03 16 -3.06 16 0 16 C0 10.72 0 5.44 0 0 Z " fill="#18BA7F" transform="translate(535,869)"/>
<path d="M0 0 C3.125 2.1875 3.125 2.1875 5 4 C3.6302836 7.99500618 1.74277578 10.80009492 -1 14 C-6 12 -6 12 -8.3125 10.875 C-12.37481411 9.5523861 -17.07949026 9.03974513 -21 11 C-21 12.98 -21 14.96 -21 17 C-20.29875 17.25394531 -19.5975 17.50789062 -18.875 17.76953125 C-16.90092029 18.48567158 -14.92833739 19.20594738 -12.95703125 19.9296875 C-11.21228435 20.56120751 -9.46160411 21.17733243 -7.69921875 21.7578125 C-1.69270975 23.78719612 2.41103808 26.61655712 6 32 C6.70952935 38.38576411 6.89082936 44.63333882 3 50 C-2.047204 55.19565118 -8.7710744 57.12653201 -15.875 57.375 C-24.03155449 57.0954919 -31.54870054 55.0564239 -38 50 C-37.32902328 45.80639551 -35.1441606 42.59665648 -33 39 C-29.98370337 39.64537878 -27.50079882 40.68215311 -24.75 42.0625 C-19.16570987 44.60165004 -13.9296477 44.97654923 -8 43 C-8.38370902 40.18057289 -8.62790667 38.42692797 -10 36 C-12.75668086 34.32654507 -15.70445102 33.60724108 -18.8125 32.8125 C-25.56099943 30.96514541 -30.52153726 29.41856929 -34.8125 23.5 C-36.59281917 18.25274349 -36.99621505 13.46843224 -36 8 C-33.51998732 3.4130739 -30.17878492 0.73962976 -25.8125 -2 C-17.09301737 -4.28707741 -8.27275174 -3.61460268 0 0 Z " fill="#192B39" transform="translate(1016,887)"/>
<path d="M0 0 C1.88879279 0.97369748 3.76945488 1.96434691 5.625 3 C5.01805845 6.15330554 3.9833335 8.18888867 2.0625 10.75 C1.60746094 11.36359375 1.15242187 11.9771875 0.68359375 12.609375 C0.33425781 13.06828125 -0.01507812 13.5271875 -0.375 14 C-5.375 12 -5.375 12 -7.625 10.875 C-11.48378089 9.64720608 -15.35633799 9.4631257 -19.375 10 C-20.035 10.66 -20.695 11.32 -21.375 12 C-21.52268913 14.51749828 -21.52268913 14.51749828 -20.375 17 C-16.34781756 19.33931921 -12.35406878 20.66991721 -7.875 21.875 C-2.51557981 23.49443711 0.9556368 24.73560493 4.625 29 C6.91342638 34.51302718 8.00560087 40.47465174 5.78515625 46.14453125 C2.49305691 52.11908191 -1.83548333 54.59284621 -8.21484375 56.5703125 C-17.76140841 58.46926749 -25.55999768 57.20063629 -34.046875 52.60546875 C-36.375 51 -36.375 51 -38.375 48 C-36.065 45.03 -33.755 42.06 -31.375 39 C-27.375 41 -27.375 41 -24.75 42.625 C-20.29165286 44.44136365 -16.14018053 44.63152995 -11.375 44 C-8.15095022 42.33045181 -8.15095022 42.33045181 -7.6875 39.375 C-7.584375 38.59125 -7.48125 37.8075 -7.375 37 C-12.0609751 35.0302715 -16.88509517 33.54193812 -21.75976562 32.11914062 C-27.94189181 30.16722058 -32.02130314 27.39153111 -35.25 21.6875 C-36.92914698 16.18362933 -37.46908601 12.14609178 -34.75 6.8125 C-25.35794616 -4.30966902 -13.1064845 -6.0800322 0 0 Z " fill="#182B39" transform="translate(735.375,887)"/>
<path d="M0 0 C2.41047574 1.69237911 3.83050895 3.24885992 5.42578125 5.703125 C4.35697902 7.04813455 3.27015617 8.37883938 2.17578125 9.703125 C1.5725 10.445625 0.96921875 11.188125 0.34765625 11.953125 C-1.57421875 13.703125 -1.57421875 13.703125 -5.57421875 13.703125 C-6.25484375 13.208125 -6.93546875 12.713125 -7.63671875 12.203125 C-12.18302808 9.88160534 -16.57067536 10.04921111 -21.57421875 10.703125 C-25.35987626 12.4607517 -27.04275803 13.95907999 -29.44921875 17.328125 C-31.22300322 22.64947842 -31.75728047 27.70502414 -29.66015625 33.01953125 C-27.12177943 37.46578485 -24.63253803 40.24399444 -19.57421875 41.703125 C-14.0318907 41.83064759 -10.21868928 40.75520563 -5.57421875 37.703125 C-1.57421875 37.703125 -1.57421875 37.703125 0.34765625 39.234375 C0.9509375 39.8840625 1.55421875 40.53375 2.17578125 41.203125 C2.789375 41.8528125 3.40296875 42.5025 4.03515625 43.171875 C4.4940625 43.6771875 4.95296875 44.1825 5.42578125 44.703125 C2.98547701 50.52517065 -2.14888566 52.70445843 -7.76171875 55.015625 C-16.58268445 56.60629095 -24.43748994 56.83492238 -32.35546875 52.24609375 C-38.80347495 47.76200493 -43.7922123 42.5229886 -45.57421875 34.703125 C-46.63113843 25.86382528 -46.9679927 16.55434034 -42.18359375 8.74609375 C-31.22586132 -5.1638433 -15.70719731 -8.41684727 0 0 Z " fill="#192C3A" transform="translate(924.57421875,888.296875)"/>
<path d="M0 0 C4.62 0 9.24 0 14 0 C14 5.28 14 10.56 14 16 C18.95 16 23.9 16 29 16 C29 20.29 29 24.58 29 29 C24.05 29 19.1 29 14 29 C14.08679645 33.41763979 14.19367254 37.83320557 14.3125 42.25 C14.33505859 43.50425781 14.35761719 44.75851562 14.38085938 46.05078125 C14.4340332 47.85869141 14.4340332 47.85869141 14.48828125 49.703125 C14.51446533 50.81333008 14.54064941 51.92353516 14.56762695 53.06738281 C15.04222184 56.28637421 15.7313464 57.70131609 18 60 C20.49407252 60.6950739 20.49407252 60.6950739 23.1875 60.75 C24.775625 60.8325 26.36375 60.915 28 61 C28.495 66.94 28.495 66.94 29 73 C23.44111732 75.40384116 17.95627888 75.71119748 12 75 C7.12010088 72.65041894 4.10229979 69.3432197 1 65 C-0.15152505 60.9150507 -0.11504421 56.95574246 -0.09765625 52.73046875 C-0.0962413 52.04946609 -0.09482635 51.36846344 -0.09336853 50.66682434 C-0.08780298 48.50700353 -0.07525703 46.34728911 -0.0625 44.1875 C-0.05748054 42.71679838 -0.05291841 41.24609512 -0.04882812 39.77539062 C-0.03784488 36.1835596 -0.02060422 32.5917902 0 29 C-2.97 29 -5.94 29 -9 29 C-9 24.71 -9 20.42 -9 16 C-6.03 16 -3.06 16 0 16 C0 10.72 0 5.44 0 0 Z " fill="#1A2D3B" transform="translate(943,869)"/>
<path d="M0 0 C5.28 0 10.56 0 16 0 C16 26.73 16 53.46 16 81 C10.72 81 5.44 81 0 81 C0 54.27 0 27.54 0 0 Z " fill="#203341" transform="translate(606,862)"/>
<path d="M0 0 C1 1 1 1 1.09765625 4.16015625 C1.08605469 5.44792969 1.07445312 6.73570312 1.0625 8.0625 C1.05347656 9.35285156 1.04445313 10.64320313 1.03515625 11.97265625 C1.02355469 12.97167969 1.01195312 13.97070312 1 15 C-0.21236328 15.03867187 -0.21236328 15.03867187 -1.44921875 15.078125 C-8.12757795 15.38494956 -8.12757795 15.38494956 -14.25 17.8125 C-16.41646337 20.05368473 -16.41646337 20.05368473 -16 24 C-16.66 24 -17.32 24 -18 24 C-18.33 35.55 -18.66 47.1 -19 59 C-24.28 59 -29.56 59 -35 59 C-35 39.86 -35 20.72 -35 1 C-30.05 1 -25.1 1 -20 1 C-19.67 3.31 -19.34 5.62 -19 8 C-18.45730469 7.50628906 -17.91460937 7.01257813 -17.35546875 6.50390625 C-16.64003906 5.86324219 -15.92460937 5.22257813 -15.1875 4.5625 C-14.47980469 3.92441406 -13.77210938 3.28632812 -13.04296875 2.62890625 C-8.93424965 -0.64707055 -5.00248188 -0.16137038 0 0 Z " fill="#18BB7F" transform="translate(519,884)"/>
<path d="M0 0 C4.30605485 2.48528474 7.41497516 5.24492549 9 10 C9.47571987 15.84121617 9.83524365 21.16888893 7.375 26.5625 C3.4018355 30.64022146 0.29951863 33.2075873 -5.5 33.5 C-11.28307883 33.20841619 -14.3649053 30.6350947 -18.375 26.625 C-20.95862253 20.86153435 -20.85046785 15.20553239 -20 9 C-16.16296968 0.02252067 -8.94157894 -1.5128429 0 0 Z " fill="#F6F6F7" transform="translate(786,898)"/>
<path d="M0 0 C64.35 0 128.7 0 195 0 C194.34 0.99 193.68 1.98 193 3 C190.4430787 3.30118341 188.12656254 3.40437433 185.56654358 3.38095093 C184.79107648 3.3856309 184.01560938 3.39031087 183.21664327 3.39513266 C180.60397446 3.40715086 177.9918236 3.39759905 175.37915039 3.38818359 C173.51182243 3.39224631 171.64449687 3.39758649 169.7771759 3.40411377 C164.6945508 3.41782987 159.61210769 3.41247081 154.52947927 3.40297651 C149.21906483 3.39540097 143.90866637 3.40241975 138.59825134 3.40713501 C129.6778584 3.4125992 120.75753986 3.40538408 111.8371582 3.39111328 C101.51474289 3.37479051 91.19250535 3.38006992 80.87009436 3.3965925 C72.01910949 3.41019446 63.16817823 3.41213319 54.3171863 3.40427649 C49.02585621 3.39959223 43.73460975 3.39899566 38.44328499 3.40888596 C33.46844196 3.41753442 28.49382868 3.41157258 23.51901054 3.39420319 C21.69002032 3.39022677 19.86101084 3.39139203 18.0320282 3.39799118 C15.54123528 3.40615146 13.05118525 3.39595249 10.56044006 3.38095093 C9.83126265 3.38764309 9.10208524 3.39433526 8.35081154 3.40123022 C4.01176647 3.35030587 3.23590062 3.23590062 0 0 Z " fill="#2B3C47" transform="translate(447,794)"/>
<path d="M0 0 C0.88816406 0.01353516 1.77632813 0.02707031 2.69140625 0.04101562 C4.87822578 0.07628691 7.06379966 0.12557248 9.25 0.1875 C9.14414488 1.63769635 9.02265607 3.08675755 8.89453125 4.53515625 C8.82854736 5.34218994 8.76256348 6.14922363 8.69458008 6.98071289 C8.25 9.1875 8.25 9.1875 5.9375 11.625 C5.050625 12.140625 4.16375 12.65625 3.25 13.1875 C2.651875 13.6 2.05375 14.0125 1.4375 14.4375 C-1.97261658 15.60668283 -5.2235123 15.73218523 -8.75 15.1875 C-11.75 13.6875 -11.75 13.6875 -13.75 11.1875 C-14.43470208 8.17602271 -14.20351444 6.3621011 -13.75 3.1875 C-10.23307502 -1.09062244 -5.04881159 -0.14542367 0 0 Z " fill="#F1FAF7" transform="translate(445.75,917.8125)"/>
<path d="M0 0 C3.3349601 2.22330673 4.91207262 4.36651868 6.8125 7.875 C6.8125 8.865 6.8125 9.855 6.8125 10.875 C-1.7675 10.875 -10.3475 10.875 -19.1875 10.875 C-18.11756576 5.52532879 -16.79854602 2.76575746 -12.375 -0.4375 C-7.97858922 -1.8192291 -4.31032366 -1.5212907 0 0 Z " fill="#F2F3F4" transform="translate(851.1875,897.125)"/>
<path d="M0 0 C0.33 0 0.66 0 1 0 C1 11.55 1 23.1 1 35 C6.94 34.505 6.94 34.505 13 34 C13 32.02 13 30.04 13 28 C13.33 27.34 13.66 26.68 14 26 C14.15306901 24.18828902 14.24946661 22.3716206 14.31640625 20.5546875 C14.35830078 19.47832031 14.40019531 18.40195312 14.44335938 17.29296875 C14.48267578 16.16503906 14.52199219 15.03710938 14.5625 13.875 C14.60568359 12.73933594 14.64886719 11.60367188 14.69335938 10.43359375 C14.7996604 7.62252232 14.90169405 4.81136055 15 2 C15.33 2 15.66 2 16 2 C16 13.22 16 24.44 16 36 C10.72 36 5.44 36 0 36 C0 24.12 0 12.24 0 0 Z " fill="#5ACEA4" transform="translate(350,907)"/>
<path d="M0 0 C0.66 0.33 1.32 0.66 2 1 C1.56429688 1.49628906 1.12859375 1.99257812 0.6796875 2.50390625 C-3.24273979 6.97819019 -7.13544286 11.47564042 -11 16 C-11.99 15.67 -12.98 15.34 -14 15 C-12.23000902 13.06172464 -10.45904239 11.12435656 -8.6875 9.1875 C-8.18798828 8.64029297 -7.68847656 8.09308594 -7.17382812 7.52929688 C-4.83056872 4.96878163 -2.48855146 2.42060466 0 0 Z " fill="#1E3140" transform="translate(412,241)"/>
<path d="M0 0 C4.29 0 8.58 0 13 0 C13 0.99 13 1.98 13 3 C8.38 3 3.76 3 -1 3 C-0.67 2.01 -0.34 1.02 0 0 Z " fill="#EDEEEF" transform="translate(944,866)"/>
<path d="M0 0 C3.90285767 1.58667578 6.33520982 4.13350481 9.25 7.125 C10.14203125 8.03507812 11.0340625 8.94515625 11.953125 9.8828125 C12.62859375 10.58148438 13.3040625 11.28015625 14 12 C13.34 12.66 12.68 13.32 12 14 C9.99387601 12.04761147 7.99507567 10.08862178 6 8.125 C5.42765625 7.56941406 4.8553125 7.01382812 4.265625 6.44140625 C2.80549218 4.99865596 1.39850702 3.5025626 0 2 C0 1.34 0 0.68 0 0 Z " fill="#2E3C4A" transform="translate(748,294)"/>
<path d="M0 0 C4.62 0 9.24 0 14 0 C14 0.99 14 1.98 14 3 C9.38 3 4.76 3 0 3 C0 2.01 0 1.02 0 0 Z " fill="#EDEFF0" transform="translate(636,943)"/>
<path d="M0 0 C0.74507812 0.10441406 1.49015625 0.20882812 2.2578125 0.31640625 C4.09014511 0.57481213 5.92032234 0.84842082 7.75 1.125 C7.42 1.785 7.09 2.445 6.75 3.125 C0.09949576 3.37491456 -5.81986533 2.86455334 -12.25 1.125 C-8.33049902 -1.65990859 -4.46387984 -0.68614407 0 0 Z " fill="#233543" transform="translate(998.25,940.875)"/>
<path d="M0 0 C1.32 0.33 2.64 0.66 4 1 C4 1.66 4 2.32 4 3 C9.28 3 14.56 3 20 3 C20 3.66 20 4.32 20 5 C13.34072392 5.22034369 7.33274406 5.22818773 1 3 C0.67 2.01 0.34 1.02 0 0 Z " fill="#24B77F" transform="translate(424,939)"/>
<path d="M0 0 C0.66 0 1.32 0 2 0 C2 4.62 2 9.24 2 14 C-1.3 13.67 -4.6 13.34 -8 13 C-8 12.67 -8 12.34 -8 12 C-5.36 12 -2.72 12 0 12 C0 8.04 0 4.08 0 0 Z " fill="#27BB84" transform="translate(518,885)"/>
<path d="M0 0 C0.99 0 1.98 0 3 0 C3 1.65 3 3.3 3 5 C-2.94 5 -8.88 5 -15 5 C-15 4.67 -15 4.34 -15 4 C-13.62714844 3.94392578 -13.62714844 3.94392578 -12.2265625 3.88671875 C-11.03804688 3.82097656 -9.84953125 3.75523437 -8.625 3.6875 C-7.44164062 3.62949219 -6.25828125 3.57148437 -5.0390625 3.51171875 C-4.03617187 3.34285156 -3.03328125 3.17398438 -2 3 C-1.34 2.01 -0.68 1.02 0 0 Z " fill="#E1F5EE" transform="translate(452,903)"/>
<path d="M0 0 C4.13621084 3.3810038 7.81316569 6.66590534 11 11 C8 11 8 11 5.73828125 9.03125 C4.93777344 8.1959375 4.13726563 7.360625 3.3125 6.5 C2.50425781 5.6646875 1.69601562 4.829375 0.86328125 3.96875 C0.24839844 3.3190625 -0.36648438 2.669375 -1 2 C-0.67 1.34 -0.34 0.68 0 0 Z " fill="#F2F3F4" transform="translate(741,283)"/>
<path d="M0 0 C3.81684226 1.55500981 6.19195732 4.03595495 9 7 C8.67 7.99 8.34 8.98 8 10 C7.2575 9.21625 6.515 8.4325 5.75 7.625 C3.42975586 5.41022151 1.89245996 4.19687998 -1 3 C-1.66 2.67 -2.32 2.34 -3 2 C-2.01 1.34 -1.02 0.68 0 0 Z " fill="#1E3140" transform="translate(860,926)"/>
<path d="M0 0 C0.33 0 0.66 0 1 0 C1.33 1.65 1.66 3.3 2 5 C3.65 5 5.3 5 7 5 C7 5.66 7 6.32 7 7 C6.01 7.495 6.01 7.495 5 8 C4.01 9.485 4.01 9.485 3 11 C2.01 11.495 2.01 11.495 1 12 C-0.3271261 8.0186217 -0.06915913 4.14954773 0 0 Z " fill="#BAC0C4" transform="translate(971,930)"/>
<path d="M0 0 C0.33 1.32 0.66 2.64 1 4 C-1.64 6.31 -4.28 8.62 -7 11 C-7.66 10.67 -8.32 10.34 -9 10 C-8.27683594 9.29423828 -8.27683594 9.29423828 -7.5390625 8.57421875 C-6.90742187 7.95160156 -6.27578125 7.32898438 -5.625 6.6875 C-4.68527344 5.76517578 -4.68527344 5.76517578 -3.7265625 4.82421875 C-1.81913393 2.91187472 -1.81913393 2.91187472 0 0 Z " fill="#1CBE84" transform="translate(791,699)"/>
<path d="M0 0 C0.66 0.66 1.32 1.32 2 2 C1.34 2 0.68 2 0 2 C0.061875 3.0725 0.12375 4.145 0.1875 5.25 C-0.00543309 9.10866187 -0.39665076 10.28817788 -3 13 C-3.27429625 7.60550707 -3.36055646 4.48074195 0 0 Z " fill="#43525D" transform="translate(702,892)"/>
<path d="M0 0 C2.31 0 4.62 0 7 0 C7 0.66 7 1.32 7 2 C5.46875 3.2890625 5.46875 3.2890625 3.5 4.625 C2.8503125 5.07101562 2.200625 5.51703125 1.53125 5.9765625 C1.0259375 6.31429687 0.520625 6.65203125 0 7 C0 4.69 0 2.38 0 0 Z " fill="#EBEEEF" transform="translate(650,885)"/>
<path d="M0 0 C0.66 0.99 1.32 1.98 2 3 C-0.625 7.875 -0.625 7.875 -4 9 C-4.33 8.34 -4.66 7.68 -5 7 C-3.35 4.69 -1.7 2.38 0 0 Z " fill="#283B4C" transform="translate(702,928)"/>
<path d="M0 0 C0.99 0.33 1.98 0.66 3 1 C0.36 3.64 -2.28 6.28 -5 9 C-5.66 8.67 -6.32 8.34 -7 8 C-4.69 5.36 -2.38 2.72 0 0 Z " fill="#1CBD84" transform="translate(844,641)"/>
<path d="M0 0 C1.21816406 0.03480469 1.21816406 0.03480469 2.4609375 0.0703125 C3.68683594 0.09738281 3.68683594 0.09738281 4.9375 0.125 C5.87722656 0.15980469 5.87722656 0.15980469 6.8359375 0.1953125 C6.8359375 0.5253125 6.8359375 0.8553125 6.8359375 1.1953125 C5.7221875 1.3190625 4.6084375 1.4428125 3.4609375 1.5703125 C-0.19509927 1.8418938 -0.19509927 1.8418938 -2.1640625 4.1953125 C-3.1640625 5.1953125 -4.1640625 6.1953125 -5.1640625 7.1953125 C-4.08619049 0.36878976 -4.08619049 0.36878976 0 0 Z " fill="#C2C7CB" transform="translate(718.1640625,895.8046875)"/>
<path d="M0 0 C0 2.97 0 5.94 0 9 C-0.33 9 -0.66 9 -1 9 C-1.33 7.02 -1.66 5.04 -2 3 C-4.64 2.67 -7.28 2.34 -10 2 C-10 1.67 -10 1.34 -10 1 C-2.25 0 -2.25 0 0 0 Z " fill="#081827" transform="translate(971,930)"/>
<path d="M0 0 C3.16115776 1.36983503 3.9927092 1.9890638 6 5 C2.79604584 5 0.90600261 4.25664978 -2 3 C-1.34 2.01 -0.68 1.02 0 0 Z " fill="#273545" transform="translate(920,925)"/>
<path d="M0 0 C4.875 4.75 4.875 4.75 6 7 C5.34 7.66 4.68 8.32 4 9 C1.525 5.04 1.525 5.04 -1 1 C-0.67 0.67 -0.34 0.34 0 0 Z " fill="#263847" transform="translate(648,770)"/>
<path d="M0 0 C0 4.31618166 -2.13270348 5.92789659 -5 9 C-5.66 9 -6.32 9 -7 9 C-5.44499019 5.18315774 -2.96404505 2.80804268 0 0 Z " fill="#1FB884" transform="translate(836,650)"/>
<path d="M0 0 C3.25543229 0.34879632 4.01873107 1.02133261 6.25 3.5625 C6.8275 4.366875 7.405 5.17125 8 6 C5 6 5 6 3.61328125 4.6875 C2.40885417 3.125 1.20442708 1.5625 0 0 Z " fill="#F4F5F5" transform="translate(751,295)"/>
<path d="M0 0 C-3.85756507 2.15305957 -6.55129785 3.39253254 -11 3 C-7.18178484 -0.02823961 -4.81391924 -1.49397494 0 0 Z " fill="#35C591" transform="translate(260,862)"/>
<path d="M0 0 C0.99 0.33 1.98 0.66 3 1 C1.37660195 2.70884005 -0.29319053 4.37446717 -2 6 C-2.66 6 -3.32 6 -4 6 C-2.84826645 3.53199953 -1.95216435 1.95216435 0 0 Z " fill="#16BF82" transform="translate(768,725)"/>
</svg>
